<?xml version="1.0" encoding="UTF-8" standalone="no"?><!DOCTYPE svg PUBLIC "-//W3C//DTD SVG 1.1//EN" "http://www.w3.org/Graphics/SVG/1.1/DTD/svg11.dtd"><svg width="100%" height="100%" viewBox="0 0 2158 567" version="1.1" xmlns="http://www.w3.org/2000/svg" xmlns:xlink="http://www.w3.org/1999/xlink" xml:space="preserve" xmlns:serif="http://www.serif.com/" style="fill-rule:evenodd;clip-rule:evenodd;stroke-linecap:round;stroke-linejoin:round;stroke-miterlimit:1.5;"><rect id="Artboard1" x="0" y="0" width="2157.84" height="567" style="fill:none;"/><circle cx="712.465" cy="283.465" r="277.795" style="fill:#507ef9;"/><path d="M895.433,133.76l4.031,0.439l3.853,1.262l3.509,2.031l3.014,2.712l2.389,3.275l1.661,3.699l0.861,3.962l0.025,4.054l-0.814,3.972l-1.616,3.718l-147.402,261l-2.563,3.543l-3.286,2.883l-3.846,2.079l-4.212,1.172l-4.367,0.205l-4.303,-0.772l-4.024,-1.71l-3.542,-2.563l-2.883,-3.287l-2.08,-3.845l-1.171,-4.212l-0.205,-4.368l0.772,-4.303l1.71,-4.023l131.038,-232.026l-108.457,-0.488l-4.342,-0.509l-4.12,-1.462l-3.691,-2.343l-3.078,-3.105l-2.309,-3.713l-1.426,-4.133l-0.469,-4.346l0.509,-4.342l1.462,-4.12l2.343,-3.692l3.105,-3.077l3.712,-2.31l4.133,-1.425l4.347,-0.47l141.732,0.638Z" style="fill:#b7d1ff;"/><path d="M753.449,153.071l141.33,0" style="fill:none;stroke:#f2f2f2;stroke-width:39px;"/><path d="M696.615,134.511l3.894,1.583l3.465,2.38l2.875,3.067l2.152,3.611l1.329,3.987l56.693,261l0.444,4.35l-0.535,4.339l-1.488,4.111l-2.365,3.677l-3.123,3.059l-3.726,2.287l-4.142,1.4l-4.349,0.444l-4.339,-0.535l-4.112,-1.487l-3.677,-2.365l-3.058,-3.124l-2.287,-3.726l-1.401,-4.141l-46.447,-213.83l-136.328,219.97l-2.704,3.435l-3.402,2.747l-3.927,1.921l-4.256,1l-4.372,0.027l-4.268,-0.947l-3.951,-1.872l-3.435,-2.705l-2.747,-3.401l-1.921,-3.927l-0.999,-4.257l-0.027,-4.372l0.946,-4.268l1.873,-3.95l161.756,-261l2.586,-3.314l3.235,-2.684l3.735,-1.928l4.061,-1.085l4.199,-0.19l4.143,0.713Z" style="fill:#fff;"/><text x="1059.15px" y="353.726px" style="font-family:'EkMukta-ExtraBold', 'Ek Mukta', sans-serif;font-weight:800;font-size:300.755px;fill:#1d1919;">A7JS</text></svg>